<svg width="100" height="100" viewBox="0 0 100 100" xmlns="http://www.w3.org/2000/svg" fill="hsl(125, 43%, 39%)">
  <path d="M50,10 C30,10 10,30 10,50 C10,75 30,90 50,90 C55,90 70,80 70,70 C70,60 60,55 50,55 C40,55 30,60 30,70 C30,80 45,90 50,90 C70,90 90,70 90,50 C90,30 70,10 50,10 z M50,15 C67,15 85,33 85,50 C85,67 67,85 50,85 C33,85 15,67 15,50 C15,33 33,15 50,15 z" />
  <path d="M30,50 L40,60 L50,40 L60,70 L70,45" stroke="hsl(124, 37%, 64%)" stroke-width="5" fill="none" stroke-linecap="round" stroke-linejoin="round" />
</svg>
